<?xml version="1.0" encoding="UTF-8"?>
<svg version="1.1" xmlns="http://www.w3.org/2000/svg" viewBox="-70 -10 180 100">
  <path d="M0 0 C3.19810618 1.88723969 5.82287865 3.8189724 8.44921875 6.4453125 C8.01018143 10.83568571 5.06867836 13.26995581 2.07421875 16.1953125 C1.57921875 16.70191406 1.08421875 17.20851563 0.57421875 17.73046875 C-3.17066417 21.4453125 -3.17066417 21.4453125 -6.55078125 21.4453125 C-7.57114141 20.4660959 -8.5695381 19.46372395 -9.55078125 18.4453125 C-16.05179472 15.01108147 -22.12525234 14.59340331 -29.17578125 16.6328125 C-34.68085219 18.65165006 -37.82411377 21.94416535 -40.86328125 26.8828125 C-43.94107379 33.55556763 -43.76493214 41.49803047 -41.6328125 48.4296875 C-39.25950665 53.62177409 -36.82134513 56.91544184 -31.55078125 59.4453125 C-23.38363981 62.41518211 -17.57864178 61.76732107 -9.6875 58.61328125 C-7.24861494 57.49477331 -7.24861494 57.49477331 -5.55078125 54.4453125 C-1.01003946 55.86889641 1.48895022 58.16663323 4.76171875 61.5703125 C6.08623047 62.93542969 6.08623047 62.93542969 7.4375 64.328125 C8.10136719 65.02679688 8.76523438 65.72546875 9.44921875 66.4453125 C8.08880657 69.60146877 6.68868303 71.37948697 3.94921875 73.4453125 C3.34078125 73.9196875 2.73234375 74.3940625 2.10546875 74.8828125 C-5.87621842 79.5779226 -13.08035167 81.17225284 -22.30078125 81.0703125 C-23.35410645 81.0604834 -24.40743164 81.0506543 -25.49267578 81.04052734 C-36.96011416 80.6966629 -45.32746386 77.76715354 -53.98828125 69.9453125 C-64.46864441 58.2003766 -66.99651068 47.61104782 -66.2265625 32.19140625 C-65.240818 21.30558995 -60.10251051 12.74002314 -52.09375 5.3515625 C-37.6661365 -5.46360706 -16.45263224 -7.68814591 0 0 Z " fill="#000000" transform="translate(65, 11)"/>
  <path d="M0 0 C2.70567626 1.82339052 4.53728718 3.07457436 6 6 C6.52137294 10.82911 6.73402673 14.74166846 4.25 19 C0.89896183 21.97870059 -0.87160806 22.87462312 -5.375 23.375 C-9.75105769 22.92230438 -11.68356181 21.86419662 -15 19 C-17.37257205 15.5559438 -18 13.62895426 -18 9.4375 C-16.5581951 4.48129565 -14.02956843 2.1750133 -9.625 -0.375 C-6.05392904 -1.22525499 -3.55526719 -0.8888168 0 0 Z " fill="#FFB200" transform="translate(94, 69)"/>
</svg>
