<svg xmlns="http://www.w3.org/2000/svg" viewBox="-67 -2 135 85">
  <path d="M0 0 C3.19 1.88 5.82 3.81 8.44 6.44 C8.01 10.83 5.06 13.26 2.07 16.19 C1.57 16.7 1.08 17.2 0.57 17.73 C-3.17 21.44 -3.17 21.44 -6.55 21.44 C-7.57 20.46 -8.56 19.46 -9.55 18.44 C-16.05 15.01 -22.12 14.59 -29.17 16.63 C-34.68 18.65 -37.82 21.94 -40.86 26.88 C-43.94 33.55 -43.76 41.49 -41.63 48.42 C-39.25 53.62 -36.82 56.91 -31.55 59.44 C-23.38 62.41 -17.57 61.76 -9.68 58.61 C-7.24 57.49 -7.24 57.49 -5.55 54.44 C-1.01 55.86 1.48 58.16 4.76 61.57 C6.08 62.93 6.08 62.93 7.43 64.32 C8.10 65.02 8.76 65.72 9.44 66.44 C8.08 69.6 6.68 71.37 3.94 73.44 C3.34 73.91 2.73 74.39 2.1 74.88 C-5.87 79.57 -13.08 81.17 -22.3 81.07 C-23.35 81.06 -24.4 81.05 -25.49 81.04 C-36.96 80.69 -45.32 77.76 -53.98 69.94 C-64.46 58.2 -66.99 47.61 -66.22 32.19 C-65.24 21.3 -60.1 12.74 -52.09 5.35 C-37.66 -5.46 -16.45 -7.68 0 0 Z" 
        fill="#000000"/>
  <path d="M0 0 C2.7 1.82 4.53 3.07 6 6 C6.52 10.82 6.73 14.74 4.25 19 C0.89 21.97 -0.87 22.87 -5.37 23.37 C-9.75 22.92 -11.68 21.86 -15 19 C-17.37 15.55 -18 13.62 -18 9.43 C-16.55 4.48 -14.02 2.17 -9.62 -0.37 C-6.05 -1.22 -3.55 -0.88 0 0 Z" 
        fill="#FFD400" transform="translate(45, 55)"/>
</svg>
